Coordinates
version=1
nRows=15
nColumns=23
inDegrees=yes

Units are S.I. units (second, meters, Newtons, ...)
If the header above contains a line with 'inDegrees', this indicates whether rotational values are in degrees (yes) or radians (no).

endheader
time	pelvis_tilt	pelvis_list	pelvis_rotation	pelvis_tx	pelvis_ty	pelvis_tz	hip_flexion_r	hip_adduction_r	hip_rotation_r	knee_angle_r	knee_angle_r_beta	ankle_angle_r	subtalar_angle_r	mtp_angle_r	hip_flexion_l	hip_adduction_l	hip_rotation_l	knee_angle_l	knee_angle_l_beta	ankle_angle_l	subtalar_angle_l	mtp_angle_l
     22.50000000	    -13.48090086	      1.14796665	      5.19785588	      2.25195485	      0.90943582	      0.96944803	     45.54495758	     -7.66231816	     -5.65335738	     98.94149427	      1.72685484	     -3.93585059	    -10.52949861	      0.00000000	     11.09581007	      0.92182703	     -5.94976784	     34.42373772	      0.60080756	     26.96658477	     14.78626608	      0.00000000
     22.50666667	    -14.40919869	      0.76926803	      4.48304725	      2.25295960	      0.91271838	      0.97028194	     48.26550746	     -6.45859165	     -5.15741987	     96.54423146	      1.68501471	     -2.80234472	    -11.51377245	      0.00000000	      8.81990757	      0.36760523	     -6.95070024	     31.45294494	      0.54895745	     24.18947800	     15.11262900	      0.00000000
     22.51333333	    -14.70858875	      0.29436150	      3.91293355	      2.25451639	      0.91738111	      0.97090398	     49.87463050	     -5.17274341	     -4.90409881	     93.59378219	      1.63351966	     -2.38044575	    -13.20307897	      0.00000000	      5.75787905	      0.01884808	     -6.97247397	     27.98470883	      0.48842531	     20.36232816	     14.32933450	      0.00000000
     22.52000000	    -15.20948357	     -0.07431870	      3.34878910	      2.25616370	      0.92164842	      0.97159960	     51.53946461	     -4.05574231	     -4.67395563	     90.47096845	      1.57901628	     -1.70364705	    -14.48981110	      0.00000000	      3.04935899	     -0.23380249	     -7.26604351	     24.65487011	      0.43030866	     15.70613618	     13.41791229	      0.00000000
     22.52666667	    -15.91378675	     -0.22373294	      2.64695376	      2.25766680	      0.92534534	      0.97261127	     53.33046497	     -2.99082312	     -4.20304801	     87.21482681	      1.52218588	     -0.97330030	    -15.51258652	      0.00000000	      0.78604340	     -0.31267995	     -8.13041386	     21.69878820	      0.37871530	     10.71702211	     12.97987435	      0.00000000
     22.53333333	    -15.99520626	     -0.77365670	      2.47371046	      2.25979777	      0.93012635	      0.97282817	     53.95900970	     -2.13982126	     -4.49074261	     83.43461205	      1.45620869	     -0.63157498	    -16.69769725	      0.00000000	     -2.03245641	     -0.66146939	     -7.83397201	     18.67899687	      0.32601000	      5.04841303	     11.13229566	      0.00000000
     22.54000000	    -16.35582709	     -1.02686352	      2.15825159	      2.26153145	      0.93404574	      0.97336258	     54.84736997	     -1.42863655	     -4.45210264	     79.56638134	      1.38869533	     -0.25427137	    -17.52000205	      0.00000000	     -4.14791986	     -0.84413820	     -8.39797582	     16.44939457	      0.28709610	     -0.33923690	     10.00537164	      0.00000000
     22.54666667	    -17.51502279	     -0.93888637	      2.08988860	      2.26267737	      0.93642905	      0.97357744	     56.54851119	     -1.31785914	     -4.36579987	     75.70297198	      1.32126611	      0.48221725	    -17.58207512	      0.00000000	     -4.66375104	     -0.88622829	     -9.70558413	     15.70744809	      0.27414669	     -4.89310977	     10.13215561	      0.00000000
     22.55333333	    -17.22867448	     -1.00892296	      1.70664519	      2.26457733	      0.94058953	      0.97410746	     56.32631350	     -0.73663908	     -4.19887432	     71.29258981	      1.24429042	      0.35726907	    -18.30309192	      0.00000000	     -7.12986262	     -0.80317239	    -10.04033004	     14.06569218	      0.24549264	     -9.86425233	      7.68524912	      0.00000000
     22.56000000	    -17.74812560	     -0.77363923	      1.54525821	      2.26577366	      0.94315723	      0.97437256	     56.91850124	     -0.69952762	     -4.04147463	     66.86124925	      1.16694894	      0.71483537	    -18.03210384	      0.00000000	     -7.92130374	     -0.66470440	    -11.19982280	     14.13268512	      0.24666189	    -13.42712270	      6.42027477	      0.00000000
     22.56666667	    -18.09683171	     -0.59180458	      1.51312246	      2.26706169	      0.94566757	      0.97438127	     57.07307538	     -0.79738873	     -4.11276505	     62.12773271	      1.08433349	      0.98301527	    -17.59987365	      0.00000000	     -8.69849986	     -0.56241431	    -11.89792472	     14.60176517	      0.25484888	    -16.39166915	      4.64555507	      0.00000000
     22.57333333	    -18.77358236	     -0.01779063	      1.35891194	      2.26779628	      0.94702830	      0.97454365	     57.55909280	     -1.13276176	     -3.96171205	     57.36622559	      1.00122952	      1.46986093	    -16.66201692	      0.00000000	     -8.74498279	     -0.14932712	    -13.02013942	     15.97738216	      0.27885792	    -18.29051565	      3.20568200	      0.00000000
     22.58000000	    -18.91180399	      0.07285901	      1.39598905	      2.26889569	      0.94904876	      0.97448307	     57.07659721	     -1.33531267	     -4.51732597	     52.16053024	      0.91037299	      2.14089390	    -15.13304681	      0.00000000	     -9.24021842	     -0.23249730	    -13.48834633	     17.62463448	      0.30760790	    -19.34917490	      1.34398764	      0.00000000
     22.58666667	    -19.55891838	      0.53219811	      1.20985414	      2.26953011	      0.94970458	      0.97492073	     57.10790371	     -1.50337520	     -4.59791948	     46.94110153	      0.81927678	      2.85794217	    -13.49397398	      0.00000000	     -8.99455845	      0.06096059	    -14.08265745	     19.79032313	      0.34540630	    -19.70344802	     -0.30717442	      0.00000000
     22.59333333	    -19.24552763	      0.12617762	      1.39145152	      2.27098399	      0.95171307	      0.97483194	     55.63104006	     -1.53999112	     -6.16367553	     41.33849877	      0.72149291	      4.29356722	    -10.37504201	      0.00000000	     -9.65310351	     -0.67397750	    -14.43133642	     22.19389400	      0.38735652	    -19.43575793	     -1.27948785	      0.00000000
